<?xml version="1.0" encoding="utf-8"?>
<!-- Generator: Adobe Illustrator 25.0.1, SVG Export Plug-In . SVG Version: 6.00 Build 0)  -->
<svg version="1.1" id="Layer_1" xmlns="http://www.w3.org/2000/svg" xmlns:xlink="http://www.w3.org/1999/xlink" x="0px" y="0px"
	 viewBox="0 0 50 50" style="enable-background:new 0 0 50 50;" xml:space="preserve">
<style type="text/css">
	.st0{fill:#10375C;}
	.st1{fill:#FFFFFF;}
</style>
<g>
	<path class="st0" d="M500,991.4c-66.3,0-130.7-13-191.3-38.6c-58.5-24.8-111.1-60.2-156.2-105.3C107.4,802.3,72,749.8,47.2,691.3
		C21.6,630.7,8.6,566.3,8.6,500c0-66.3,13-130.7,38.6-191.3c24.7-58.5,60.2-111.1,105.3-156.2c45.1-45.1,97.7-80.6,156.2-105.3
		C369.3,21.6,433.7,8.6,500,8.6c66.3,0,130.7,13,191.3,38.6c58.5,24.7,111.1,60.2,156.2,105.3c45.1,45.1,80.6,97.7,105.3,156.2
		c25.6,60.6,38.6,124.9,38.6,191.3c0,66.3-13,130.7-38.6,191.3c-24.8,58.5-60.2,111.1-105.3,156.2S749.8,928,691.3,952.8
		C630.7,978.4,566.3,991.4,500,991.4z"/>
	<path d="M500,9.2c66.3,0,130.5,13,191,38.6C749.5,72.5,802,107.9,847,153c45.1,45.1,80.5,97.6,105.2,156
		c25.6,60.5,38.6,124.8,38.6,191s-13,130.5-38.6,191C927.5,749.5,892.1,802,847,847c-45.1,45.1-97.6,80.5-156,105.2
		c-60.5,25.6-124.8,38.6-191,38.6s-130.5-13-191-38.6C250.5,927.5,198,892.1,153,847C107.9,802,72.5,749.5,47.8,691
		C22.2,630.5,9.2,566.3,9.2,500s13-130.5,38.6-191C72.5,250.5,107.9,198,153,153c45.1-45.1,97.6-80.5,156-105.2
		C369.5,22.2,433.7,9.2,500,9.2 M500,8C228.3,8,8,228.3,8,500s220.3,492,492,492s492-220.3,492-492S771.7,8,500,8L500,8z"/>
</g>
<g>
	<g>
		<path class="st1" d="M460.8,371.3c-7.1-24.7-17.5-48.7-28.5-61c-13.6-14.3-22.1-16.9-53.2-16.9h-48.7c-22.1,0-24.7,1.3-24.7,23.4
			v141.5h69.4c38.3,0,43.5-9.7,53.2-55.2h24v144h-24.7c-7.1-44.1-16.9-55.2-52.6-55.2h-69.4v101.2c0,59.7,3.9,64.2,62.3,68.1v24
			H160.3v-24c49.3-4.5,55.2-8.4,55.2-68.1V354.4c0-57.7-5.8-62.9-55.2-66.8v-24h220c55.8,0,88.2-0.6,98.6-1.3
			c0.6,11,3.9,66.8,7.1,105.1L460.8,371.3z"/>
		<path class="st1" d="M695,685.3H523.7v-22.1c34.4-3.9,37.6-7.1,37.6-46.1V475.1c0-32.4-2.6-35.7-33.1-42.2v-20.1
			c40.2-4.5,76.6-12.3,116.8-24.7c0,21.4,0,49.3,0,70.1c29.2-44.8,52.6-68.8,79.2-68.8c24,0,42.2,16.2,42.2,38.9
			c0,31.8-22.7,50-33.1,55.2c-9.1,3.9-15.6,0.6-20.1-3.2c-11-9.1-19.5-19.5-30.5-19.5c-9.7,0-26,8.4-37.6,33.1v123.3
			c0,38.9,4.5,40.9,50,46.1V685.3z"/>
		<path class="st1" d="M847.5,693.1c-30.5,0-52.6-22.7-52.6-54.5c0-31.1,22.1-53.9,52.6-53.9c30.5,0,53.2,22.7,53.2,53.9
			C900.7,670.4,878.6,693.1,847.5,693.1z"/>
	</g>
</g>
</svg>
